<svg width="396" height="106" viewBox="0 0 396 106" fill="none" xmlns="http://www.w3.org/2000/svg">
<g clip-path="url(#clip0_3_7)">
<path d="M20.6894 94.7021C22.555 96.1347 24.5192 97.4406 26.5678 98.6163L52.8 72.3829L79.0299 98.6151C81.0809 97.4395 83.0438 96.1335 84.9094 94.7009L52.8 62.5915L20.6894 94.7021Z" fill="#6E62E5"/>
<path d="M10.8991 20.6906L43.0097 52.8012L10.8991 84.9118C12.3095 86.7492 13.8301 88.501 15.4657 90.1367L52.8 52.8012L15.4657 15.4669C13.8289 17.1013 12.3095 18.852 10.8991 20.6906Z" fill="#6E62E5"/>
<path d="M84.9106 10.8991C83.0462 9.46762 81.0809 8.1617 79.0322 6.9872L52.8 33.2182L26.5666 6.98602C24.518 8.1617 22.5538 9.4688 20.6894 10.8991L52.8 43.0109L84.9106 10.8991Z" fill="#6E62E5"/>
<path d="M62.5903 52.8012L94.7021 20.6894C93.2905 18.852 91.7711 17.1013 90.1343 15.4645L52.8 52.8012L90.1343 90.1366C91.7699 88.4998 93.2894 86.7492 94.7021 84.9118L62.5903 52.8012Z" fill="#6E62E5"/>
<path d="M98.6152 26.5678L72.3806 52.8012L98.6152 79.0357C103.05 71.3047 105.6 62.3556 105.6 52.8012C105.6 43.2491 103.05 34.2977 98.6152 26.5678Z" fill="#6E62E5"/>
<path d="M72.3806 101.759L52.8 82.1732L33.2194 101.759H33.0258C39.1354 104.228 45.8058 105.599 52.8 105.599C59.7931 105.599 66.4646 104.228 72.573 101.759H72.3806Z" fill="#6E62E5"/>
<path d="M33.2194 52.8012L6.98603 26.569C2.54965 34.2977 0 43.2491 0 52.8012C0 62.3556 2.54848 71.3046 6.98603 79.0334L33.2194 52.8012Z" fill="#6E62E5"/>
<path d="M33.2194 3.84619L52.8 23.4268L72.3806 3.84619H72.5801C66.4694 1.37397 59.7966 0 52.8 0C45.8023 0 39.1319 1.37397 33.02 3.84501L33.2194 3.84619Z" fill="#6E62E5"/>
<path d="M169.045 15.84C189.197 15.84 206.091 30.8007 206.091 52.4784C206.091 74.1561 189.197 89.1168 169.045 89.1168C148.894 89.1168 132 74.1561 132 52.4784C132 30.8007 148.894 15.84 169.045 15.84ZM169.045 73.749C180.546 73.749 189.095 64.793 189.095 52.4784C189.095 40.1638 180.546 31.2078 169.045 31.2078C157.545 31.2078 149.098 40.1638 149.098 52.4784C149.098 64.793 157.545 73.749 169.045 73.749ZM286.695 34.3627C297.992 34.3627 307.966 41.6904 307.966 59.6025V88.0991H291.886V60.1114C291.886 53.3944 289.036 48.3057 281.607 48.3057C275.399 48.3057 271.226 53.8014 270.005 58.6866V88.0991H253.924V60.1114C253.924 53.3944 249.752 48.3057 243.645 48.3057C237.03 48.3057 233.061 52.7837 232.043 58.6866V88.0991H215.963V35.1769H232.043V44.8454C232.247 42.4028 237.437 34.3627 247.818 34.3627C255.451 34.3627 262.779 38.4337 267.155 45.8631C268.376 43.0135 274.483 34.3627 286.695 34.3627ZM350.202 34.3627C360.074 34.3627 370.15 40.978 370.15 57.7706V88.0991H354.069V58.8901C354.069 50.85 351.322 48.3057 346.233 48.3057C339.007 48.3057 334.834 55.328 333.817 58.3812V88.0991H317.736V35.1769H333.817V44.3365C334.834 41.7922 340.228 34.3627 350.202 34.3627ZM396 16.1453V29.6812H379.92V16.1453H396ZM396 35.1769V88.0991H379.92V35.1769H396Z" fill="#1E2125"/>
</g>
<defs>
<clipPath id="clip0_3_7">
<rect width="396" height="105.599" fill="white"/>
</clipPath>
</defs>
</svg>
